<?xml version="1.0" encoding="UTF-8" standalone="no"?>
<svg
   xmlns:dc="http://purl.org/dc/elements/1.1/"
   xmlns:cc="http://creativecommons.org/ns#"
   xmlns:rdf="http://www.w3.org/1999/02/22-rdf-syntax-ns#"
   xmlns:svg="http://www.w3.org/2000/svg"
   xmlns="http://www.w3.org/2000/svg"
   xmlns:sodipodi="http://sodipodi.sourceforge.net/DTD/sodipodi-0.dtd"
   xmlns:inkscape="http://www.inkscape.org/namespaces/inkscape"
   viewBox="0 0 800 453"
   version="1.1"
   id="svg4404"
   sodipodi:docname="centralized-2.svg"
   inkscape:version="0.92.3 (2405546, 2018-03-11)">
  <metadata
     id="metadata4410">
    <rdf:RDF>
      <cc:Work
         rdf:about="">
        <dc:format>image/svg+xml</dc:format>
        <dc:type
           rdf:resource="http://purl.org/dc/dcmitype/StillImage" />
      </cc:Work>
    </rdf:RDF>
  </metadata>
  <defs
     id="defs4408" />
  <sodipodi:namedview
     pagecolor="#ffffff"
     bordercolor="#666666"
     borderopacity="1"
     objecttolerance="10"
     gridtolerance="10"
     guidetolerance="10"
     inkscape:pageopacity="0"
     inkscape:pageshadow="2"
     inkscape:window-width="1920"
     inkscape:window-height="1016"
     id="namedview4406"
     showgrid="false"
     inkscape:zoom="1.2846554"
     inkscape:cx="431.39719"
     inkscape:cy="190.23339"
     inkscape:window-x="0"
     inkscape:window-y="27"
     inkscape:window-maximized="1"
     inkscape:current-layer="centralized_x5F_workflow_x5F_4" />
  <style
     id="style4371">.st0{display:none;} .st1{display:inline;} .st2{fill:#FFFFFF;} .st3{fill:none;stroke:#9882CE;stroke-width:4;stroke-miterlimit:10;} .st4{fill:#FFFFFF;stroke:#404040;stroke-width:4;stroke-linecap:round;stroke-linejoin:round;stroke-miterlimit:10;} .st5{fill:#FFFFFF;stroke:#404040;stroke-width:4;stroke-miterlimit:10;} .st6{fill:#B3E3FF;stroke:#404040;stroke-width:4;stroke-miterlimit:10;} .st7{fill:#B18BE8;stroke:#404040;stroke-width:4;stroke-miterlimit:10;} .st8{fill:#FFFFFF;stroke:#404040;stroke-width:6;stroke-miterlimit:10;} .st9{fill:#B3E3FF;stroke:#404040;stroke-width:6;stroke-miterlimit:10;} .st10{fill:#404040;} .st11{fill:none;stroke:#404040;stroke-width:4;stroke-linecap:round;stroke-linejoin:round;stroke-miterlimit:10;} .st12{fill:#B18BE8;stroke:#404040;stroke-width:4;stroke-linecap:round;stroke-linejoin:round;stroke-miterlimit:10;} .st13{fill:#444444;} .st14{fill:none;stroke:#404040;stroke-width:4;stroke-miterlimit:10;} .st15{fill:#4ED1A1;stroke:#404040;stroke-width:4;stroke-miterlimit:10;} .st16{fill:none;stroke:#CCCCCC;stroke-width:7;stroke-linecap:round;stroke-linejoin:round;stroke-miterlimit:10;} .st17{fill:#FFFFFF;stroke:#CCCCCC;stroke-width:7;stroke-linecap:round;stroke-linejoin:round;stroke-miterlimit:10;} .st18{fill:none;stroke:#404040;stroke-width:7;stroke-miterlimit:10;} .st19{fill:#B3E3FF;stroke:#404040;stroke-width:7;stroke-miterlimit:10;} .st20{fill:#CCCCCC;} .st21{fill:none;stroke:#404040;stroke-width:8;stroke-linecap:round;stroke-miterlimit:10;} .st22{fill:#FFFFFF;stroke:#404040;stroke-width:4;stroke-linejoin:round;stroke-miterlimit:10;} .st23{fill:#B3E3FF;stroke:#404040;stroke-width:4;stroke-linejoin:round;stroke-miterlimit:10;} .st24{fill:none;stroke:#CCCCCC;stroke-linecap:round;stroke-linejoin:round;stroke-miterlimit:10;} .st25{fill:#999999;} .st26{fill:#4ED1A1;stroke:#404040;stroke-width:4;stroke-linecap:round;stroke-linejoin:round;stroke-miterlimit:10;} .st27{fill:#4CD3D6;stroke:#404040;stroke-width:4;stroke-linejoin:round;stroke-miterlimit:10;} .st28{fill:none;stroke:#59AFE1;stroke-width:4;stroke-miterlimit:10;} .st29{fill:#59AFE1;stroke:#404040;stroke-width:4;stroke-linejoin:round;stroke-miterlimit:10;} .st30{fill:none;stroke:#404040;stroke-width:8;stroke-linecap:round;stroke-linejoin:round;stroke-miterlimit:10;stroke-dasharray:0,30;} .st31{fill:#FFFFFF;stroke:#59AFE1;stroke-width:4;stroke-miterlimit:10;} .st32{fill:#FC8363;stroke:#404040;stroke-width:4;stroke-linecap:round;stroke-linejoin:round;stroke-miterlimit:10;} .st33{fill:#CCCCCC;stroke:#404040;stroke-width:4;stroke-miterlimit:10;} .st34{fill:#FFFFFF;stroke:#6693ED;stroke-width:4;stroke-miterlimit:10;} .st35{fill:none;stroke:#A97CDD;stroke-width:4;stroke-linecap:round;stroke-linejoin:round;stroke-miterlimit:10;} .st36{fill:none;stroke:#B3E3FF;stroke-width:4;stroke-linecap:round;stroke-linejoin:round;stroke-miterlimit:10;} .st37{fill:none;stroke:#4ED1A1;stroke-width:4;stroke-linecap:round;stroke-miterlimit:10;} .st38{fill:none;stroke:#4ED1A1;stroke-width:4;stroke-linecap:round;stroke-linejoin:round;stroke-miterlimit:10;} .st39{fill:#E24B88;stroke:#404040;stroke-width:4;stroke-linecap:round;stroke-linejoin:round;stroke-miterlimit:10;} .st40{fill:none;stroke:#DEEFF8;stroke-width:4;stroke-miterlimit:10;} .st41{fill:none;stroke:#CCCCCC;stroke-width:4;stroke-linecap:round;stroke-linejoin:round;} .st42{fill:none;stroke:#CCCCCC;stroke-width:4;stroke-linecap:round;stroke-linejoin:round;stroke-dasharray:0,14.3051;} .st43{fill:none;stroke:#CCCCCC;stroke-width:4;stroke-linecap:round;stroke-linejoin:round;stroke-dasharray:0,14.1689;} .st44{fill:none;stroke:#CCCCCC;stroke-width:4;stroke-linecap:round;stroke-linejoin:round;stroke-dasharray:0,13.9788;} .st45{fill:none;stroke:#CCCCCC;stroke-width:4;stroke-linecap:round;stroke-linejoin:round;stroke-dasharray:0,14.7877;} .st46{fill:none;stroke:#CCCCCC;stroke-width:4;stroke-linecap:round;stroke-linejoin:round;stroke-dasharray:0,14.9632;} .st47{fill:#B3E3FF;stroke:#404040;stroke-width:4;stroke-linecap:round;stroke-linejoin:round;stroke-miterlimit:10;} .st48{fill:none;stroke:#CCCCCC;stroke-width:4;stroke-linecap:round;stroke-linejoin:round;stroke-dasharray:0,12.543;} .st49{fill:none;stroke:#CCCCCC;stroke-width:4;stroke-linecap:round;stroke-linejoin:round;stroke-dasharray:0,13.6844;} .st50{fill:none;stroke:#CCCCCC;stroke-width:4;stroke-linecap:round;stroke-linejoin:round;stroke-dasharray:0,13.7717;} .st51{fill:none;stroke:#CCCCCC;stroke-width:4;stroke-linecap:round;stroke-linejoin:round;stroke-dasharray:0,13.6492;} .st52{fill:none;stroke:#CCCCCC;stroke-width:4;stroke-linecap:round;stroke-linejoin:round;stroke-dasharray:0,13.907;} .st53{fill:#4CD3D6;stroke:#404040;stroke-width:4;stroke-linecap:round;stroke-linejoin:round;stroke-miterlimit:10;} .st54{fill:none;stroke:#CCCCCC;stroke-width:4;stroke-linecap:round;stroke-linejoin:round;stroke-dasharray:0,14.9858;} .st55{fill:none;stroke:#CCCCCC;stroke-width:4;stroke-linecap:round;stroke-linejoin:round;stroke-dasharray:0,14.0118;} .st56{fill:none;stroke:#CCCCCC;stroke-width:4;stroke-linecap:round;stroke-linejoin:round;stroke-dasharray:0,14.1243;} .st57{fill:none;} .st58{fill:#FFFFFF;stroke:#404040;stroke-width:7;stroke-linecap:round;stroke-linejoin:round;stroke-miterlimit:10;} .st59{fill:#59AFE1;stroke:#404040;stroke-width:7;stroke-linejoin:round;stroke-miterlimit:10;} .st60{fill:#E24B88;stroke:#404040;stroke-width:7;stroke-linecap:round;stroke-linejoin:round;stroke-miterlimit:10;} .st61{fill:none;stroke:#404040;stroke-width:7;stroke-linecap:round;stroke-linejoin:round;stroke-miterlimit:10;} .st62{fill:none;stroke:#CCCCCC;stroke-width:4;stroke-linecap:round;stroke-linejoin:round;stroke-miterlimit:10;} .st63{fill:#FFFFFF;stroke:#CCCCCC;stroke-width:4;stroke-linecap:round;stroke-linejoin:round;stroke-miterlimit:10;} .st64{fill:#F5F5F5;} .st65{fill:#3873AE;} .st66{fill:#75706C;} .st67{fill:none;stroke:#B3E3FF;stroke-width:4;stroke-miterlimit:10;} .st68{fill:#6F6F6F;} .st69{fill:none;stroke:#6F6F6F;stroke-width:2;stroke-miterlimit:10;} .st70{fill:none;stroke:#6F6F6F;stroke-width:3;stroke-miterlimit:10;}</style>
  <g
     id="centralized_x5F_workflow_x5F_4">
    <path
       class="st11"
       d="m 676.69001,282.45704 m -126.31605,0 h 75.05381 M 360.28669,181.89474 h 138.57975 m -87.93069,50.28115 c 0,-27.71595 -22.5652,-50.28115 -50.28115,-50.28115 H 112.68269 m 298.25306,50.28115 c 0,27.71595 22.5652,50.28115 50.28115,50.28115 h 37.64954"
       id="path4375"
       inkscape:connector-curvature="0"
       style="fill:none;stroke:#404040;stroke-width:4.905478;stroke-linecap:round;stroke-linejoin:round;stroke-miterlimit:10" />
    <circle
       class="st4"
       cx="291.24207"
       cy="181.89474"
       id="circle4377"
       r="25.753759"
       style="fill:#ffffff;stroke:#404040;stroke-width:4.905478;stroke-linecap:round;stroke-linejoin:round;stroke-miterlimit:10" />
    <circle
       class="st4"
       cx="189.08551"
       cy="181.89474"
       id="circle4379"
       r="25.753759"
       style="fill:#ffffff;stroke:#404040;stroke-width:4.905478;stroke-linecap:round;stroke-linejoin:round;stroke-miterlimit:10" />
    <circle
       class="st23"
       cx="651.18152"
       cy="282.45706"
       id="circle4381"
       r="25.753759"
       style="fill:#b3e3ff;stroke:#404040;stroke-width:4.905478;stroke-linejoin:round;stroke-miterlimit:10" />
    <circle
       class="st23"
       cx="524.62018"
       cy="282.45706"
       id="circle4383"
       r="25.753759"
       style="fill:#b3e3ff;stroke:#404040;stroke-width:4.905478;stroke-linejoin:round;stroke-miterlimit:10" />
    <circle
       class="st12"
       cx="524.62018"
       cy="181.89474"
       id="circle4385"
       r="25.753759"
       style="fill:#b18be8;stroke:#404040;stroke-width:4.905478;stroke-linecap:round;stroke-linejoin:round;stroke-miterlimit:10" />
    <circle
       class="st4"
       cx="87.051575"
       cy="181.89474"
       id="circle4387"
       r="25.753759"
       style="fill:#ffffff;stroke:#404040;stroke-width:4.905478;stroke-linecap:round;stroke-linejoin:round;stroke-miterlimit:10" />
    <path
       class="st11"
       d="M 524.6202,126.09493 V 97.275249 m 13.24479,18.150271 -13.24479,13.24479 -13.36743,-13.24479"
       id="path4389"
       inkscape:connector-curvature="0"
       style="fill:none;stroke:#404040;stroke-width:4.905478;stroke-linecap:round;stroke-linejoin:round;stroke-miterlimit:10" />
    <path
       class="st12"
       d="M 441.10444,10.325653 H 607.89068 V 71.644127 H 441.10444 Z"
       id="path4391"
       inkscape:connector-curvature="0"
       style="fill:#b18be8;stroke:#404040;stroke-width:4.905478;stroke-linecap:round;stroke-linejoin:round;stroke-miterlimit:10" />
    <path
       class="st10"
       d="m 467.34874,34.97568 c 3.3112,0 6.49976,2.452739 6.49976,6.745032 0,4.292293 -3.3112,6.745032 -6.49976,6.745032 -3.31119,0 -6.49976,-2.452739 -6.49976,-6.745032 0,-4.292293 3.18857,-6.745032 6.49976,-6.745032 z m 0,12.018421 c 2.45274,0 4.66021,-1.716918 4.66021,-5.150752 0,-3.433835 -2.33011,-5.150752 -4.66021,-5.150752 -2.45274,0 -4.6602,1.716917 -4.6602,5.150752 0,3.311197 2.20746,5.150752 4.6602,5.150752 z m 14.71644,-5.763937 h -0.73583 c -1.47164,0 -2.45273,0.735822 -2.45273,2.698013 v 4.41493 h -1.71692 v -8.82986 h 1.71692 v 1.59428 c 0.61318,-1.349006 1.71691,-1.716917 2.69801,-1.716917 h 0.61318 v 1.839554 z m 3.55647,-6.377121 c 0.73582,0 1.22637,0.613185 1.22637,1.226369 0,0.735822 -0.49055,1.22637 -1.22637,1.22637 -0.73582,0 -1.22637,-0.613185 -1.22637,-1.22637 0,-0.613184 0.49055,-1.226369 1.22637,-1.226369 z m -0.85846,13.490064 v -8.82986 h 1.71692 v 8.82986 z m 6.62239,0.122637 c 0.12264,1.226369 1.10374,2.207465 2.45274,2.207465 1.83956,0 2.69802,-0.981096 2.69802,-2.82065 V 46.62619 c -0.36791,0.858458 -1.34901,1.471643 -2.69802,1.471643 -2.3301,0 -4.04702,-1.839554 -4.04702,-4.292293 0,-2.452739 1.59428,-4.292293 4.04702,-4.292293 1.34901,0 2.33011,0.490548 2.69802,1.349006 v -1.226369 h 1.71691 v 8.216675 c 0,2.207465 -1.10373,4.41493 -4.41493,4.41493 -2.20746,0 -3.80174,-1.349006 -4.04702,-3.311197 z m 5.15076,-4.782841 c 0,-1.716917 -0.9811,-2.82065 -2.57538,-2.82065 -1.47164,0 -2.57538,1.103733 -2.57538,2.82065 0,1.716917 0.9811,2.82065 2.57538,2.82065 1.59428,0 2.57538,-1.22637 2.57538,-2.82065 z m 6.25448,-8.82986 c 0.73582,0 1.22637,0.613185 1.22637,1.226369 0,0.735822 -0.49055,1.22637 -1.22637,1.22637 -0.73582,0 -1.22637,-0.613185 -1.22637,-1.22637 0,-0.613184 0.49055,-1.226369 1.22637,-1.226369 z m -0.85846,13.490064 v -8.82986 h 1.71692 v 8.82986 z m 7.23558,0 h -1.71692 v -8.82986 h 1.71692 v 1.226369 c 0.61319,-1.103732 1.71692,-1.471643 2.69801,-1.471643 2.08483,0 3.18857,1.471643 3.18857,3.433834 v 5.6413 h -1.71692 v -5.273389 c 0,-1.226369 -0.49055,-2.207465 -2.08483,-2.207465 -1.34901,0 -2.08483,1.103733 -2.08483,2.452739 z m 9.81096,0 h -1.71692 l 6.25448,-12.999516 h 1.71692 z m 21.09355,0 V 38.16424 l -4.41493,10.178867 h -1.59428 L 529.64831,38.16424 v 10.178867 h -1.83955 V 35.343591 h 2.45274 l 4.53756,10.669414 4.66021,-10.669414 h 2.45274 v 12.999516 z m 7.9714,-5.028115 2.33011,-0.367911 c 0.49054,-0.122637 0.73582,-0.36791 0.73582,-0.613184 0,-0.858459 -0.61319,-1.594281 -1.96219,-1.594281 -1.22637,0 -1.83956,0.735822 -1.96219,1.839555 l -1.71692,-0.367911 c 0.24527,-1.716918 1.71692,-2.82065 3.67911,-2.82065 2.69801,0 3.67911,1.471643 3.67911,3.188561 v 4.41493 c 0,0.735821 0.12263,1.226369 0.12263,1.471643 h -1.71692 c 0,-0.245274 -0.12263,-0.613185 -0.12263,-1.226369 -0.36791,0.613184 -1.22637,1.471643 -2.82065,1.471643 -1.83956,0 -2.94329,-1.22637 -2.94329,-2.698013 0,-1.59428 1.10373,-2.575376 2.69801,-2.698013 z m 3.06593,1.22637 v -0.367911 l -2.69802,0.367911 c -0.73582,0.122637 -1.349,0.490547 -1.349,1.349006 0,0.613185 0.49055,1.22637 1.47164,1.22637 1.34901,0 2.57538,-0.613185 2.57538,-2.575376 z m 6.00921,0.981095 c 0.12264,0.981096 0.85846,1.594281 2.08483,1.594281 0.98109,0 1.47164,-0.490548 1.47164,-1.22637 0,-0.490548 -0.36791,-0.981095 -1.10373,-1.103732 l -1.47165,-0.367911 c -1.349,-0.245274 -2.20746,-1.22637 -2.20746,-2.452739 0,-1.471644 1.47164,-2.82065 3.18856,-2.82065 2.45274,0 3.18856,1.59428 3.3112,2.330102 l -1.47165,0.613185 c -0.12263,-0.490548 -0.49054,-1.471644 -1.83955,-1.471644 -0.85846,0 -1.47164,0.613185 -1.47164,1.22637 0,0.490548 0.36791,0.981095 0.98109,1.103732 l 1.47164,0.367911 c 1.59429,0.367911 2.45274,1.349007 2.45274,2.575376 0,1.22637 -1.10373,2.698013 -3.18856,2.698013 -2.45274,0 -3.43383,-1.59428 -3.55647,-2.575376 z m 10.79205,-6.00921 h 1.96219 v 1.59428 h -1.96219 v 4.660204 c 0,0.858459 0.36791,1.22637 1.22637,1.22637 0.24527,0 0.49055,0 0.73582,-0.122637 v 1.471643 c -0.12264,0 -0.61318,0.122637 -1.22637,0.122637 -1.47164,0 -2.45274,-0.981096 -2.45274,-2.575376 V 40.98489 h -1.71692 v -1.59428 h 0.49055 c 0.9811,0 1.34901,-0.613185 1.34901,-1.349006 V 36.56996 h 1.59428 z m 12.75424,6.254484 c -0.49055,1.59428 -1.96219,2.82065 -3.92438,2.82065 -2.3301,0 -4.41493,-1.716917 -4.41493,-4.782841 0,-2.82065 1.96219,-4.660204 4.16966,-4.660204 2.69801,0 4.29229,1.839554 4.29229,4.660204 v 0.613185 h -6.6224 c 0,1.59428 1.22637,2.698013 2.69802,2.698013 1.47164,0 2.20746,-0.735822 2.45274,-1.839555 z m -1.71692,-2.82065 c 0,-1.226369 -0.85845,-2.207465 -2.45273,-2.207465 -1.47165,0 -2.33011,1.103733 -2.45274,2.207465 z m 9.81096,-1.716917 h -0.73582 c -1.47164,0 -2.45274,0.735822 -2.45274,2.698013 v 4.41493 h -1.71692 v -8.82986 h 1.71692 v 1.59428 c 0.61318,-1.349006 1.71692,-1.716917 2.69801,-1.716917 h 0.61319 v 1.839554 z"
       id="path4393"
       inkscape:connector-curvature="0"
       style="fill:#404040;stroke-width:1.2263695" />
    <path
       class="st11"
       d="m 651.18153,227.02514 v -28.81968 m 13.36742,18.15026 -13.36742,13.36743 -13.36743,-13.36743"
       id="path4395"
       inkscape:connector-curvature="0"
       style="fill:none;stroke:#404040;stroke-width:4.905478;stroke-linecap:round;stroke-linejoin:round;stroke-miterlimit:10" />
    <path
       class="st23"
       d="m 592.31579,111.25586 h 117.73147 v 61.31847 H 592.31579 Z"
       id="path4397"
       inkscape:connector-curvature="0"
       style="fill:#b3e3ff;stroke:#404040;stroke-width:4.905478;stroke-linejoin:round;stroke-miterlimit:10" />
    <path
       class="st10"
       d="m 633.64444,149.27331 v -10.17886 l -4.41493,10.17886 h -1.59428 l -4.41493,-10.17886 v 10.17886 h -1.83955 V 136.2738 h 2.45274 l 4.53756,10.66941 4.66021,-10.66941 h 2.45274 v 12.99951 z m 7.84877,-5.02811 2.3301,-0.36791 c 0.49055,-0.12264 0.73582,-0.36791 0.73582,-0.61319 0,-0.85845 -0.61318,-1.59428 -1.96219,-1.59428 -1.22637,0 -1.83955,0.73583 -1.96219,1.83956 l -1.71692,-0.36791 c 0.24528,-1.71692 1.71692,-2.82065 3.67911,-2.82065 2.69801,0 3.67911,1.47164 3.67911,3.18856 v 4.41493 c 0,0.73582 0.12264,1.22637 0.12264,1.47164 h -1.71692 c 0,-0.24527 -0.12264,-0.61318 -0.12264,-1.22637 -0.36791,0.61319 -1.22637,1.47165 -2.82065,1.47165 -1.83955,0 -2.94329,-1.22637 -2.94329,-2.69802 0,-1.59428 1.22637,-2.45274 2.69802,-2.69801 z m 3.06592,1.34901 v -0.36791 l -2.69801,0.36791 c -0.73582,0.12263 -1.22637,0.49054 -1.22637,1.349 0,0.61319 0.49055,1.22637 1.47164,1.22637 1.34901,0 2.45274,-0.73582 2.45274,-2.57537 z m 6.13185,0.85845 c 0.12264,0.9811 0.85846,1.59428 2.08483,1.59428 0.98109,0 1.47164,-0.49054 1.47164,-1.22636 0,-0.49055 -0.36791,-0.9811 -1.10373,-1.10374 l -1.47165,-0.36791 c -1.349,-0.24527 -2.20746,-1.22637 -2.20746,-2.45274 0,-1.47164 1.47164,-2.82065 3.18856,-2.82065 2.45274,0 3.18856,1.59428 3.3112,2.33011 l -1.47165,0.61318 c -0.12263,-0.49055 -0.49054,-1.47164 -1.83955,-1.47164 -0.85846,0 -1.47164,0.61318 -1.47164,1.22637 0,0.49054 0.36791,0.98109 0.98109,1.10373 l 1.47165,0.36791 c 1.59428,0.36791 2.45273,1.34901 2.45273,2.57538 0,1.22636 -1.10373,2.69801 -3.18856,2.69801 -2.45274,0 -3.43383,-1.59428 -3.55647,-2.57538 z m 10.79205,-6.00921 h 1.96219 v 1.59428 h -1.96219 v 4.66021 c 0,0.85846 0.36791,1.22637 1.22637,1.22637 0.24527,0 0.49055,0 0.73582,-0.12264 v 1.47164 c -0.12264,0 -0.61318,0.12264 -1.22637,0.12264 -1.47164,0 -2.45274,-0.98109 -2.45274,-2.57537 v -4.90548 h -1.71691 v -1.59428 h 0.49054 c 0.9811,0 1.34901,-0.61319 1.34901,-1.34901 v -1.47164 h 1.59428 z m 12.75424,6.37713 c -0.49055,1.59428 -1.96219,2.82065 -3.92438,2.82065 -2.3301,0 -4.41493,-1.71692 -4.41493,-4.78285 0,-2.82065 1.96219,-4.6602 4.16966,-4.6602 2.69801,0 4.29229,1.83955 4.29229,4.6602 v 0.61319 h -6.6224 c 0,1.59428 1.22637,2.69801 2.69802,2.69801 1.47164,0 2.20746,-0.73582 2.45274,-1.83955 z m -1.71691,-2.82065 c 0,-1.22637 -0.85846,-2.20747 -2.45274,-2.20747 -1.47165,0 -2.33011,1.10373 -2.45274,2.20747 z m 9.81095,-1.71692 h -0.73582 c -1.47164,0 -2.45274,0.73582 -2.45274,2.69801 v 4.41493 h -1.71692 v -8.82986 h 1.71692 v 1.59428 c 0.61319,-1.349 1.71692,-1.71692 2.69801,-1.71692 h 0.61319 v 1.83956 z M 521.06373,420.4236 v -12.99951 h 4.53756 c 3.3112,0 6.25449,2.20746 6.25449,6.49976 0,4.29229 -2.94329,6.49975 -6.25449,6.49975 z m 4.53756,-1.59428 c 2.45274,0 4.41493,-1.59428 4.41493,-4.90547 0,-3.3112 -1.96219,-4.90548 -4.41493,-4.90548 h -2.69801 v 9.81095 z m 10.30151,-11.77314 c 0.73582,0 1.22637,0.49054 1.22637,1.22637 0,0.73582 -0.49055,1.22637 -1.22637,1.22637 -0.73583,0 -1.22637,-0.61319 -1.22637,-1.22637 0,-0.73583 0.61318,-1.22637 1.22637,-1.22637 z m -0.85846,13.36742 v -8.82986 h 1.71691 v 8.82986 z m 9.68832,0 h -1.71692 l -3.55647,-8.82986 h 1.96219 l 2.57537,6.86767 2.57538,-6.86767 h 1.83955 z m 13.49006,-2.45273 c -0.49055,1.59428 -1.96219,2.82065 -3.92438,2.82065 -2.3301,0 -4.41493,-1.71692 -4.41493,-4.78285 0,-2.82065 1.96219,-4.6602 4.16965,-4.6602 2.69802,0 4.2923,1.83955 4.2923,4.6602 v 0.49055 h -6.6224 c 0,1.59428 1.22637,2.69801 2.69802,2.69801 1.47164,0 2.20746,-0.73582 2.45273,-1.83955 z m -1.71692,-2.82065 c 0,-1.22637 -0.85846,-2.20747 -2.45274,-2.20747 -1.47164,0 -2.3301,1.10373 -2.45273,2.20747 z m 9.81096,-1.71692 h -0.73582 c -1.47165,0 -2.45274,0.73582 -2.45274,2.69801 v 4.41493 h -1.71692 v -8.9525 h 1.71692 v 1.59428 c 0.61318,-1.349 1.71692,-1.71691 2.69801,-1.71691 h 0.61319 v 1.96219 z m 3.67911,7.11294 c 0.12263,1.22637 1.10373,2.20747 2.45274,2.20747 1.83955,0 2.69801,-0.9811 2.69801,-2.82065 v -1.22637 c -0.36791,0.85846 -1.34901,1.47164 -2.69801,1.47164 -2.33011,0 -4.04702,-1.83955 -4.04702,-4.29229 0,-2.3301 1.59428,-4.2923 4.04702,-4.2923 1.349,0 2.3301,0.49055 2.69801,1.34901 v -1.22637 h 1.71692 v 8.21668 c 0,2.20746 -1.10374,4.41493 -4.41493,4.41493 -2.20747,0 -3.80175,-1.34901 -4.04702,-3.3112 z m 5.27339,-4.78284 c 0,-1.71692 -0.9811,-2.82065 -2.57538,-2.82065 -1.47164,0 -2.57538,1.10373 -2.57538,2.82065 0,1.71692 0.9811,2.82065 2.57538,2.82065 1.47164,0 2.57538,-1.10373 2.57538,-2.82065 z m 12.99951,2.20747 c -0.49055,1.59428 -1.96219,2.82065 -3.92438,2.82065 -2.3301,0 -4.41493,-1.71692 -4.41493,-4.78285 0,-2.82065 1.96219,-4.6602 4.16966,-4.6602 2.69801,0 4.29229,1.83955 4.29229,4.6602 v 0.49055 h -6.6224 c 0,1.59428 1.22637,2.69801 2.69802,2.69801 1.47164,0 2.20746,-0.73582 2.45274,-1.83955 z m -1.71691,-2.82065 c 0,-1.22637 -0.85846,-2.20747 -2.45274,-2.20747 -1.47165,0 -2.33011,1.10373 -2.45274,2.20747 z m 11.15996,4.04701 c -0.36791,0.85846 -1.34901,1.59429 -2.69802,1.59429 -2.57537,0 -4.16965,-2.08483 -4.16965,-4.66021 0,-2.45274 1.71692,-4.6602 4.16965,-4.6602 1.59429,0 2.45274,0.73582 2.69802,1.47164 v -5.76394 h 1.71691 v 11.65051 c 0,0.85846 0.12264,1.47165 0.12264,1.59428 h -1.71692 c 0,-0.24527 -0.12263,-0.61318 -0.12263,-1.22637 z m -2.57538,0 c 1.59428,0 2.57538,-1.349 2.57538,-3.18856 0,-1.83955 -0.9811,-3.06592 -2.57538,-3.06592 -1.59428,0 -2.57537,1.22637 -2.57537,3.06592 -0.12264,1.83956 0.85845,3.18856 2.57537,3.18856 z m 15.9428,-6.00921 v 7.23558 h -1.83955 v -7.23558 h -1.59428 v -1.59428 h 1.59428 v -1.47164 c 0,-1.96219 1.34901,-3.06592 2.94329,-3.06592 0.61318,0 0.98109,0.12263 0.98109,0.24527 v 1.59428 c -0.12263,0 -0.36791,-0.12264 -0.73582,-0.12264 -0.61318,0 -1.34901,0.24528 -1.34901,1.47165 v 1.349 h 2.08483 v 1.59428 z m 9.81096,0.24528 h -0.73582 c -1.47164,0 -2.45274,0.73582 -2.45274,2.69801 v 4.41493 h -1.71692 v -8.9525 h 1.71692 v 1.59428 c 0.61318,-1.349 1.71692,-1.71691 2.69801,-1.71691 h 0.61319 v 1.96219 z m 10.91469,2.57537 c 0,2.69802 -1.83956,4.66021 -4.53757,4.66021 -2.69801,0 -4.53757,-1.96219 -4.53757,-4.66021 0,-2.69801 1.83956,-4.6602 4.53757,-4.6602 2.69801,0 4.53757,1.96219 4.53757,4.6602 z m -1.71692,0 c 0,-2.08482 -1.349,-3.18856 -2.69801,-3.18856 -1.34901,0 -2.69801,1.10374 -2.69801,3.18856 0,2.08483 1.349,3.18856 2.69801,3.18856 1.34901,0 2.69801,-1.10373 2.69801,-3.18856 z m 4.90548,4.41493 v -8.82986 h 1.59428 v 1.22637 c 0.61318,-0.98109 1.71692,-1.47164 2.69801,-1.47164 1.10374,0 2.20747,0.49055 2.69802,1.71692 0.73582,-1.22637 1.83955,-1.71692 2.94328,-1.71692 1.59428,0 3.06593,1.10373 3.06593,3.3112 v 5.76393 h -1.71692 v -5.51866 c 0,-1.10373 -0.61319,-2.08483 -1.83956,-2.08483 -1.22637,0 -2.08482,0.9811 -2.08482,2.20747 v 5.39602 h -1.71692 v -5.51866 c 0,-1.10373 -0.49055,-2.08483 -1.83956,-2.08483 -1.22636,0 -2.08482,0.9811 -2.08482,2.20747 v 5.27339 h -1.71692 z m -129.25934,17.65972 c 0,1.9622 1.22637,3.06593 2.69801,3.06593 1.59428,0 2.20747,-1.10373 2.45274,-1.83956 l 1.47164,0.61319 c -0.36791,1.22637 -1.71691,2.69801 -4.04702,2.69801 -2.57537,0 -4.41493,-2.08483 -4.41493,-4.6602 0,-2.69802 1.96219,-4.66021 4.41493,-4.66021 2.33011,0 3.55647,1.47165 3.92439,2.82065 l -1.59428,0.61319 c -0.24528,-0.85846 -0.85846,-1.83956 -2.33011,-1.83956 -1.22637,0.12264 -2.57537,1.22637 -2.57537,3.18856 z m 17.29181,1.9622 c -0.49055,1.59428 -1.96219,2.82065 -3.92439,2.82065 -2.3301,0 -4.41493,-1.71692 -4.41493,-4.78285 0,-2.82065 1.9622,-4.6602 4.16966,-4.6602 2.69801,0 4.29229,1.83955 4.29229,4.6602 v 0.49055 h -6.62239 c 0,1.59428 1.22637,2.69802 2.69801,2.69802 1.47164,0 2.20747,-0.73583 2.45274,-1.83956 z m -1.71692,-2.82065 c 0,-1.22637 -0.85846,-2.20747 -2.45274,-2.20747 -1.47164,0 -2.3301,1.10373 -2.45274,2.20747 z m 6.62239,5.27338 h -1.71691 v -8.82986 h 1.71691 v 1.22637 c 0.61319,-1.10373 1.71692,-1.47164 2.69802,-1.47164 2.08483,0 3.18856,1.47164 3.18856,3.55647 v 5.6413 h -1.71692 v -5.27339 c 0,-1.22637 -0.49055,-2.20746 -2.08483,-2.20746 -1.349,0 -2.08483,1.10373 -2.08483,2.45274 z m 11.89579,-8.82986 h 1.96219 v 1.59428 h -1.96219 v 4.66021 c 0,0.85846 0.36791,1.22637 1.22637,1.22637 0.24527,0 0.49055,0 0.73582,-0.12264 v 1.47164 c -0.12264,0 -0.61318,0.12264 -1.22637,0.12264 -1.47164,0 -2.45274,-0.98109 -2.45274,-2.57537 v -4.90548 h -1.71692 v -1.47165 h 0.49055 c 0.9811,0 1.34901,-0.61318 1.34901,-1.349 v -1.47165 h 1.59428 z m 9.81095,1.83956 h -0.73582 c -1.47164,0 -2.45274,0.73582 -2.45274,2.69801 v 4.41493 h -1.71691 v -8.9525 h 1.71691 v 1.59428 c 0.61319,-1.349 1.71692,-1.71691 2.69802,-1.71691 h 0.61318 v 1.96219 z m 4.90548,1.96219 2.3301,-0.36791 c 0.49055,-0.12264 0.73583,-0.36791 0.73583,-0.61319 0,-0.85845 -0.61319,-1.59428 -1.9622,-1.59428 -1.22636,0 -1.83955,0.73583 -1.96219,1.83956 l -1.71691,-0.36791 c 0.24527,-1.71692 1.71691,-2.82065 3.6791,-2.82065 2.69802,0 3.67911,1.47164 3.67911,3.18856 v 4.41493 c 0,0.73582 0.12264,1.22637 0.12264,1.47164 h -1.71692 c 0,-0.24527 -0.12263,-0.61318 -0.12263,-1.22637 -0.36791,0.61319 -1.22637,1.47165 -2.82065,1.47165 -1.83956,0 -2.94329,-1.22637 -2.94329,-2.69802 0,-1.59428 1.10373,-2.45274 2.69801,-2.69801 z m 3.06593,1.34901 v -0.36791 l -2.69802,0.36791 c -0.73582,0.12263 -1.349,0.49054 -1.349,1.349 0,0.61319 0.49054,1.22637 1.47164,1.22637 1.47164,0 2.57538,-0.73582 2.57538,-2.57537 z m 5.27338,3.6791 v -13.36742 h 1.71692 v 13.36742 z m 16.06544,-6.9903 h -0.73582 c -1.47164,0 -2.45274,0.73582 -2.45274,2.69801 v 4.41493 h -1.71691 v -8.9525 h 1.71691 v 1.59428 c 0.61319,-1.349 1.71692,-1.71691 2.69802,-1.71691 h 0.61318 v 1.96219 z m 10.42415,4.53757 c -0.49055,1.59428 -1.9622,2.82065 -3.92439,2.82065 -2.3301,0 -4.41493,-1.71692 -4.41493,-4.78285 0,-2.82065 1.96219,-4.6602 4.16966,-4.6602 2.69801,0 4.29229,1.83955 4.29229,4.6602 v 0.49055 h -6.62239 c 0,1.59428 1.22637,2.69802 2.69801,2.69802 1.47164,0 2.20746,-0.73583 2.45274,-1.83956 z m -1.83956,-2.82065 c 0,-1.22637 -0.85846,-2.20747 -2.45274,-2.20747 -1.47164,0 -2.3301,1.10373 -2.45274,2.20747 z m 5.02812,8.82986 v -12.38634 h 1.71691 v 1.34901 c 0.49055,-0.85846 1.47165,-1.59428 2.94329,-1.59428 2.69801,0 4.04702,2.08483 4.04702,4.6602 0,2.57538 -1.47164,4.66021 -4.16966,4.66021 -1.349,0 -2.3301,-0.61319 -2.82065,-1.47164 v 4.6602 h -1.71691 z m 4.29229,-11.03733 c -1.59428,0 -2.57538,1.34901 -2.57538,3.06592 0,1.83956 1.10374,3.06593 2.57538,3.06593 1.59428,0 2.57537,-1.34901 2.57537,-3.06593 0,-1.71691 -0.98109,-3.06592 -2.57537,-3.06592 z m 15.82017,3.06592 c 0,2.69802 -1.83956,4.66021 -4.53757,4.66021 -2.69801,0 -4.53757,-1.96219 -4.53757,-4.66021 0,-2.69801 1.83956,-4.6602 4.53757,-4.6602 2.69801,0 4.53757,1.96219 4.53757,4.6602 z m -1.83956,0 c 0,-2.08482 -1.34901,-3.18856 -2.69801,-3.18856 -1.34901,0 -2.69801,1.10374 -2.69801,3.18856 0,2.08483 1.22636,3.18857 2.69801,3.18857 1.47164,0 2.69801,-1.10374 2.69801,-3.18857 z m 5.6413,1.59428 c 0.12264,0.9811 0.85846,1.59429 2.08483,1.59429 0.98109,0 1.47164,-0.61319 1.47164,-1.22637 0,-0.61319 -0.36791,-0.9811 -1.10373,-1.10374 l -1.47164,-0.36791 c -1.34901,-0.24527 -2.20747,-1.22637 -2.20747,-2.45274 0,-1.47164 1.47164,-2.82065 3.18856,-2.82065 2.45274,0 3.18856,1.59428 3.3112,2.33011 l -1.47164,0.61318 c -0.12264,-0.49055 -0.49055,-1.47164 -1.83956,-1.47164 -0.85846,0 -1.47164,0.61318 -1.47164,1.22637 0,0.49054 0.36791,0.98109 0.98109,1.10373 l 1.47165,0.36791 c 1.59428,0.36791 2.45274,1.34901 2.45274,2.57538 0,1.22637 -1.10374,2.69801 -3.18856,2.69801 -2.45274,0 -3.43384,-1.59428 -3.55648,-2.57538 z m 9.32041,-10.54677 c 0.73582,0 1.22637,0.49055 1.22637,1.22637 0,0.73582 -0.49055,1.22637 -1.22637,1.22637 -0.73582,0 -1.22637,-0.61319 -1.22637,-1.22637 0,-0.73582 0.61318,-1.22637 1.22637,-1.22637 z m -0.73582,13.36742 v -8.82986 h 1.71691 v 8.82986 z m 7.84876,-8.82986 h 1.96219 v 1.59428 h -1.96219 v 4.66021 c 0,0.85846 0.36791,1.22637 1.22637,1.22637 0.24527,0 0.49055,0 0.73582,-0.12264 v 1.47164 c -0.12263,0 -0.61318,0.12264 -1.22637,0.12264 -1.47164,0 -2.45274,-0.98109 -2.45274,-2.57537 v -4.90548 h -1.71691 v -1.47165 h 0.49054 c 0.9811,0 1.34901,-0.61318 1.34901,-1.349 v -1.47165 h 1.59428 z m 13.36743,4.41493 c 0,2.69802 -1.83956,4.66021 -4.53757,4.66021 -2.69801,0 -4.53757,-1.96219 -4.53757,-4.66021 0,-2.69801 1.83956,-4.6602 4.53757,-4.6602 2.69801,0 4.53757,1.96219 4.53757,4.6602 z m -1.83956,0 c 0,-2.08482 -1.349,-3.18856 -2.69801,-3.18856 -1.349,0 -2.69801,1.10374 -2.69801,3.18856 0,2.08483 1.22637,3.18857 2.69801,3.18857 1.47164,0 2.69801,-1.10374 2.69801,-3.18857 z m 9.81096,-2.57537 h -0.73582 c -1.47164,0 -2.45274,0.73582 -2.45274,2.69801 v 4.41493 h -1.71692 v -8.9525 h 1.71692 v 1.59428 c 0.61318,-1.349 1.71692,-1.71691 2.69801,-1.71691 h 0.61319 v 1.96219 z m 3.43383,10.79205 2.20747,-4.6602 -3.80175,-7.84877 h 1.9622 l 2.69801,6.13185 2.69801,-6.13185 h 1.83956 L 659.52084,446.3 Z"
       id="path4399"
       inkscape:connector-curvature="0"
       style="fill:#404040;stroke-width:1.2263695" />
    <path
       class="st11"
       d="m 587.90086,385.47207 m 25.75376,-25.75375 c 14.22589,0 25.75376,-11.52788 25.75376,-25.75376 m -25.75376,25.75376 c -14.22589,0 -25.75376,11.52787 -25.75376,25.75375 M 562.1471,359.71832 c 14.22589,0 25.75376,11.52787 25.75376,25.75375 M 562.1471,359.71832 c -14.22588,0 -25.75376,-11.52788 -25.75376,-25.75376"
       id="path4401"
       inkscape:connector-curvature="0"
       style="fill:none;stroke:#404040;stroke-width:4.905478;stroke-linecap:round;stroke-linejoin:round;stroke-miterlimit:10" />
  </g>
</svg>
